<?xml version="1.0" encoding="UTF-8"?>
<svg id="Layer_1" xmlns="http://www.w3.org/2000/svg" viewBox="0 0 113.39 113.39">
  <path d="M89.15,22.59c-.84,1.39-1.8,3.27-2.53,4.45-5.16,8.28-11.21,15.82-18.5,22.33-5.59,5-11.73,9.19-18.53,12.39-4.91,2.3-9.99,4.08-15.32,5.14-6.59,1.3-13.91-2.1-17.14-7.91-1.8-3.22-2.32-6.71-2.42-10.3-.46-16.69,9.22-32.39,24.61-39.14,7.09-3.11,14.51-4.12,22.19-3.11,9.28,1.21,17.21,5.17,23.82,11.75,1.39,1.39,2.66,2.86,3.81,4.42Z" style="fill: #ffb545;"/>
  <path d="M96.77,50.24c-.86,9.14-4.4,17.15-10.59,23.95-9.81,10.8-19.64,21.58-29.46,32.37-.2.22-.4.43-.73.77-.24-.31-.44-.59-.68-.85-3.29-3.62-6.6-7.22-9.87-10.86-3.65-4.06-2.87-10.15,1.74-13.09,4.11-2.63,7.99-5.55,11.56-8.86,5.38-5.01,10.15-10.57,14.14-16.74,2.78-4.3,5.46-8.69,7.85-13.22,3.04-5.76,5.55-11.77,7.59-17.97.24-.72.73-2.2.96-2.92,0-.01,0-.03,0-.05,1.83,2.5,3.34,5.21,4.54,8.12,2.56,6.2,3.57,12.67,2.94,19.34Z" style="fill: #7fbd58;"/>
  <path d="M93.6,16.09c-1.18.49-2.25.99-3.36,1.38-.94.33-1.91.56-2.88.79-.2.05-.44-.1-.66-.16.09-.23.12-.52.29-.67,3.74-3.34,7.5-6.67,11.25-10,.09-.08.21-.12.44-.24-.43,2.27-.84,4.4-1.25,6.54-.53,2.81-1.05,5.62-1.61,8.43-.06.3-.3.57-.46.85-.21-.25-.54-.48-.6-.77-.38-1.73-.71-3.48-1.05-5.22-.05-.28-.08-.57-.13-.93Z" style="fill: #00c46a;"/>
</svg>